<svg xmlns="http://www.w3.org/2000/svg" viewBox="0 0 23.8 23.8"><circle cx="11.9" cy="11.9" r="11.4" style="fill:#020030;stroke:#00404f;stroke-miterlimit:10"/><path d="M17.31,19.54a.75.75,0,0,1-.33-.07.7.7,0,0,1-.29-.19L12.51,15.1a.8.8,0,0,1-.2-.29,1,1,0,0,1-.06-.33,1,1,0,0,1,.06-.34.69.69,0,0,1,.2-.3L14,12.35a1.21,1.21,0,0,1,.3-.2.86.86,0,0,1,.68,0,1,1,0,0,1,.29.2l4.18,4.2a.8.8,0,0,1,.2.29.72.72,0,0,1,.07.33.68.68,0,0,1-.08.34.86.86,0,0,1-.19.29L18,19.28a1,1,0,0,1-.64.26Z" style="fill:#ff0"/><polygon points="16.95 17.17 17.49 16.63 14.24 13.37 13.7 13.91 16.95 17.17" style="fill:#ff0"/><polyline points="10.6 11.58 7.46 8.44 6.37 8.44 3.87 5.94 6.07 3.75 8.57 6.25 8.57 7.33 11.71 10.47" style="fill:#ff0"/><path d="M11.93,10.71l2.19-2.19L13,7.43,14,6.49H12.06l-.54-.55,2.75-2.76.55.56V5.65l.95-1,3.11,3.13a2.58,2.58,0,0,1,.5.72,2.13,2.13,0,0,1,0,1.76,2.92,2.92,0,0,1-.51.78L17.23,9.47l-1.06,1.07-.92-.92L11.37,13.5v1.62L7.19,19.28a.77.77,0,0,1-.29.19.88.88,0,0,1-.33.06,1,1,0,0,1-.34-.06.67.67,0,0,1-.3-.19L4.46,17.82a.67.67,0,0,1-.19-.28,1,1,0,0,1-.06-.35,1,1,0,0,1,.06-.33.77.77,0,0,1,.19-.31l4.18-4.16h1.62l.56-.57" style="fill:#23ff07"/><polygon points="6.57 17.72 9.98 14.31 9.98 13.77 9.44 13.77 6.03 17.18 6.57 17.72" style="fill:#23ff07"/></svg>